<svg width="72" height="51" viewBox="0 0 72 51" fill="none" xmlns="http://www.w3.org/2000/svg">
<path id="Icon" d="M53.5 50H71V42.9028C71 37.0232 66.299 32.2569 60.5 32.2569C57.1554 32.2569 54.176 33.8425 52.2531 36.3126M53.5 50H18.5M53.5 50V42.9028C53.5 40.574 53.0575 38.3501 52.2531 36.3126M18.5 50H1V42.9028C1 37.0232 5.70101 32.2569 11.5 32.2569C14.8446 32.2569 17.824 33.8425 19.7469 36.3126M18.5 50V42.9028C18.5 40.574 18.9425 38.3501 19.7469 36.3126M19.7469 36.3126C22.3273 29.7766 28.6319 25.1597 36 25.1597C43.3681 25.1597 49.6727 29.7766 52.2531 36.3126M46.5 11.6458C46.5 17.5254 41.799 22.2917 36 22.2917C30.201 22.2917 25.5 17.5254 25.5 11.6458C25.5 5.7663 30.201 1 36 1C41.799 1 46.5 5.7663 46.5 11.6458ZM67.5 22.2917C67.5 26.2114 64.366 29.3889 60.5 29.3889C56.634 29.3889 53.5 26.2114 53.5 22.2917C53.5 18.372 56.634 15.1944 60.5 15.1944C64.366 15.1944 67.5 18.372 67.5 22.2917ZM18.5 22.2917C18.5 26.2114 15.366 29.3889 11.5 29.3889C7.63401 29.3889 4.5 26.2114 4.5 22.2917C4.5 18.372 7.63401 15.1944 11.5 15.1944C15.366 15.1944 18.5 18.372 18.5 22.2917Z" stroke="#464646" stroke-width="2" stroke-linecap="round" stroke-linejoin="round"/>
</svg>
