<svg width="81" height="78" viewBox="0 0 81 78" fill="none" xmlns="http://www.w3.org/2000/svg">
<g id="Group 428">
<path id="Vector" d="M15.7451 11.8691L30.1029 20.4838L44.4606 11.8691" stroke="#464646" stroke-width="2" stroke-linecap="round" stroke-linejoin="round"/>
<path id="Vector_2" d="M18.2583 47.7651H7.13177C5.60861 47.7651 4.14783 47.16 3.07079 46.083C1.99375 45.0059 1.38867 43.5452 1.38867 42.022V7.56341C1.38867 6.04025 1.99375 4.57947 3.07079 3.50243C4.14783 2.42539 5.60861 1.82031 7.13177 1.82031H53.0766C54.5997 1.82031 56.0605 2.42539 57.1375 3.50243C58.2146 4.57947 58.8197 6.04025 58.8197 7.56341V14.5614" stroke="#464646" stroke-width="2" stroke-linecap="round"/>
<g id="Group 231">
<path id="Vector_3" d="M62.0273 67.5033H70.642M70.642 67.5033H79.2566M70.642 67.5033V58.8887M70.642 67.5033V76.118" stroke="#464646" stroke-width="2" stroke-linecap="round" stroke-linejoin="round"/>
<path id="Vector_4" d="M33.334 45.6821V31.8987C33.334 31.4418 33.5155 31.0035 33.8386 30.6804C34.1617 30.3573 34.6 30.1758 35.0569 30.1758H48.8403C49.2973 30.1758 49.7355 30.3573 50.0586 30.6804C50.3818 31.0035 50.5633 31.4418 50.5633 31.8987V45.6821C50.5633 46.1391 50.3818 46.5773 50.0586 46.9004C49.7355 47.2236 49.2973 47.4051 48.8403 47.4051H35.0569C34.6 47.4051 34.1617 47.2236 33.8386 46.9004C33.5155 46.5773 33.334 46.1391 33.334 45.6821ZM33.334 74.3976V60.6142C33.334 60.1573 33.5155 59.719 33.8386 59.3959C34.1617 59.0728 34.6 58.8913 35.0569 58.8913H48.8403C49.2973 58.8913 49.7355 59.0728 50.0586 59.3959C50.3818 59.719 50.5633 60.1573 50.5633 60.6142V74.3976C50.5633 74.8546 50.3818 75.2928 50.0586 75.6159C49.7355 75.9391 49.2973 76.1206 48.8403 76.1206H35.0569C34.6 76.1206 34.1617 75.9391 33.8386 75.6159C33.5155 75.2928 33.334 74.8546 33.334 74.3976ZM62.0495 45.6821V31.8987C62.0495 31.4418 62.231 31.0035 62.5541 30.6804C62.8772 30.3573 63.3155 30.1758 63.7724 30.1758H77.5558C78.0128 30.1758 78.451 30.3573 78.7741 30.6804C79.0973 31.0035 79.2788 31.4418 79.2788 31.8987V45.6821C79.2788 46.1391 79.0973 46.5773 78.7741 46.9004C78.451 47.2236 78.0128 47.4051 77.5558 47.4051H63.7724C63.3155 47.4051 62.8772 47.2236 62.5541 46.9004C62.231 46.5773 62.0495 46.1391 62.0495 45.6821Z" stroke="#464646" stroke-width="2"/>
</g>
</g>
</svg>
