<svg width="82" height="70" viewBox="0 0 82 70" fill="none" xmlns="http://www.w3.org/2000/svg">
<g id="Group 427">
<g id="Group 224">
<path id="Vector" d="M44 65.4189V35.6935C44 34.8175 44.348 33.9774 44.9674 33.358C45.5868 32.7386 46.4269 32.3906 47.3028 32.3906H77.0283C77.9043 32.3906 78.7443 32.7386 79.3637 33.358C79.9831 33.9774 80.3311 34.8175 80.3311 35.6935V65.4189C80.3311 66.2949 79.9831 67.135 79.3637 67.7544C78.7443 68.3738 77.9043 68.7217 77.0283 68.7217H47.3028C46.4269 68.7217 45.5868 68.3738 44.9674 67.7544C44.348 67.135 44 66.2949 44 65.4189Z" stroke="#464646" stroke-width="2"/>
<path id="Vector_2" d="M67.1206 42.297H73.7262M67.1206 56.334H73.7262M67.1206 61.2882H73.7262M50.6064 42.297H53.9093M53.9093 42.297H57.2121M53.9093 42.297V38.9941M53.9093 42.297V45.5998M51.5742 61.1462L53.9093 58.8111M53.9093 58.8111L56.246 56.476M53.9093 58.8111L51.5742 56.476M53.9093 58.8111L56.246 61.1462" stroke="#464646" stroke-width="2" stroke-linecap="round" stroke-linejoin="round"/>
</g>
<path id="Vector_3" d="M1.22266 23.0887L36.9678 1.33398L72.7129 23.0887M9.16602 64.6204H34.3309M29.0244 21.111H44.9112M13.1377 52.7542V32.9772M29.0244 52.7542V32.9772" stroke="#464646" stroke-width="2" stroke-linecap="round" stroke-linejoin="round"/>
</g>
</svg>
