<svg width="75" height="81" viewBox="0 0 75 81" fill="none" xmlns="http://www.w3.org/2000/svg">
<g id="Group 429">
<path id="Vector" d="M39.1629 73.8353H8.91071C6.90486 73.8353 4.98117 73.0385 3.56282 71.6201C2.14448 70.2018 1.34766 68.2781 1.34766 66.2723V32.2385M1.34766 32.2385H69.4151M1.34766 32.2385V17.1124C1.34766 15.1066 2.14448 13.1829 3.56282 11.7645C4.98117 10.3462 6.90486 9.54938 8.91071 9.54938H16.4738M69.4151 32.2385V43.5831M69.4151 32.2385V17.1124C69.4151 15.1066 68.6183 13.1829 67.2 11.7645C65.7816 10.3462 63.8579 9.54938 61.8521 9.54938H59.9613M46.726 9.54938V1.98633M46.726 9.54938V17.1124M46.726 9.54938H29.7091M16.4738 1.98633V17.1124" stroke="#464646" stroke-width="2" stroke-linecap="round" stroke-linejoin="round"/>
<path id="Vector_2" d="M61.7956 49.963L71.4611 52.4172C72.467 52.6744 73.1742 53.5895 73.1439 54.6257C72.4935 76.3997 59.9351 79.7426 59.9351 79.7426C59.9351 79.7426 47.3766 76.3997 46.7262 54.6257C46.7145 54.1212 46.8747 53.6278 47.1805 53.2265C47.4863 52.8252 47.9195 52.5398 48.409 52.4172L58.0745 49.963C59.296 49.6529 60.5741 49.6529 61.7956 49.963Z" stroke="#464646" stroke-width="2" stroke-linecap="round" stroke-linejoin="round"/>
</g>
</svg>
