<svg width="81" height="77" viewBox="0 0 81 77" fill="none" xmlns="http://www.w3.org/2000/svg">
<g id="Group 434">
<path id="Vector" d="M15.7451 11.4648L30.1029 20.0795L44.4606 11.4648" stroke="#464646" stroke-width="2" stroke-linecap="round" stroke-linejoin="round"/>
<path id="Vector_2" d="M18.2583 47.3608H7.13177C5.60861 47.3608 4.14783 46.7557 3.07079 45.6787C1.99375 44.6016 1.38867 43.1409 1.38867 41.6177V7.15911C1.38867 5.63595 1.99375 4.17517 3.07079 3.09813C4.14783 2.02109 5.60861 1.41602 7.13177 1.41602H53.0766C54.5997 1.41602 56.0605 2.02109 57.1375 3.09813C58.2146 4.17517 58.8197 5.63595 58.8197 7.15911V14.1571" stroke="#464646" stroke-width="2" stroke-linecap="round"/>
<g id="Group 231">
<g id="Vector_3">
<path d="M62.0273 67.099H70.642H62.0273ZM79.2566 67.099H70.642H79.2566ZM70.642 67.099V58.4844V67.099ZM70.642 67.099V75.7137V67.099Z" fill="#FFBC00"/>
<path d="M62.0273 67.099H70.642M70.642 67.099H79.2566M70.642 67.099V58.4844M70.642 67.099V75.7137" stroke="#464646" stroke-width="2" stroke-linecap="round" stroke-linejoin="round"/>
</g>
<path id="Vector_4" d="M33.334 45.2779V31.4944C33.334 31.0375 33.5155 30.5992 33.8386 30.2761C34.1617 29.953 34.6 29.7715 35.0569 29.7715H48.8404C49.2973 29.7715 49.7355 29.953 50.0586 30.2761C50.3818 30.5992 50.5633 31.0375 50.5633 31.4944V45.2779C50.5633 45.7348 50.3818 46.173 50.0586 46.4961C49.7355 46.8193 49.2973 47.0008 48.8404 47.0008H35.0569C34.6 47.0008 34.1617 46.8193 33.8386 46.4961C33.5155 46.173 33.334 45.7348 33.334 45.2779ZM33.334 73.9933V60.2099C33.334 59.753 33.5155 59.3147 33.8386 58.9916C34.1617 58.6685 34.6 58.487 35.0569 58.487H48.8404C49.2973 58.487 49.7355 58.6685 50.0586 58.9916C50.3818 59.3147 50.5633 59.753 50.5633 60.2099V73.9933C50.5633 74.4503 50.3818 74.8885 50.0586 75.2116C49.7355 75.5348 49.2973 75.7163 48.8404 75.7163H35.0569C34.6 75.7163 34.1617 75.5348 33.8386 75.2116C33.5155 74.8885 33.334 74.4503 33.334 73.9933ZM62.0495 45.2779V31.4944C62.0495 31.0375 62.231 30.5992 62.5541 30.2761C62.8772 29.953 63.3155 29.7715 63.7724 29.7715H77.5558C78.0128 29.7715 78.451 29.953 78.7741 30.2761C79.0973 30.5992 79.2788 31.0375 79.2788 31.4944V45.2779C79.2788 45.7348 79.0973 46.173 78.7741 46.4961C78.451 46.8193 78.0128 47.0008 77.5558 47.0008H63.7724C63.3155 47.0008 62.8772 46.8193 62.5541 46.4961C62.231 46.173 62.0495 45.7348 62.0495 45.2779Z" fill="#FFBC00" stroke="#464646" stroke-width="2"/>
</g>
</g>
</svg>
