<svg width="81" height="84" viewBox="0 0 81 84" fill="none" xmlns="http://www.w3.org/2000/svg">
<g id="Group 441">
<path id="Vector 13" d="M23.3264 60.1808L22.5625 69.7294L58.0833 70.4933V65.9099L57.7014 60.5627L56.9375 56.7433L53.5 51.3961L47.0069 46.8127L42.8056 46.0488H37.0764L30.5833 48.7224L26.7639 52.1599L24.0903 56.7433L23.3264 60.1808Z" fill="#FFBC00"/>
<circle id="Ellipse 123" cx="40.5138" cy="32.6808" r="10.6944" fill="#FFBC00"/>
<path id="Icon" d="M58.0833 70.1113H75.6528V63.1408C75.6528 57.3663 70.9331 52.6851 65.1111 52.6851C61.7532 52.6851 58.762 54.2423 56.8315 56.6684M58.0833 70.1113H22.9444M58.0833 70.1113V63.1408C58.0833 60.8537 57.6391 58.6694 56.8315 56.6684M22.9444 70.1113H5.375V63.1408C5.375 57.3663 10.0947 52.6851 15.9167 52.6851C19.2746 52.6851 22.2658 54.2423 24.1963 56.6684M22.9444 70.1113V63.1408C22.9444 60.8537 23.3887 58.6694 24.1963 56.6684M24.1963 56.6684C26.7869 50.249 33.1165 45.7146 40.5139 45.7146C47.9113 45.7146 54.2409 50.249 56.8315 56.6684M51.0556 32.4421C51.0556 38.2166 46.3359 42.8978 40.5139 42.8978C34.6919 42.8978 29.9722 38.2166 29.9722 32.4421C29.9722 26.6675 34.6919 21.9863 40.5139 21.9863C46.3359 21.9863 51.0556 26.6675 51.0556 32.4421ZM72.1389 42.8978C72.1389 46.7475 68.9924 49.8683 65.1111 49.8683C61.2298 49.8683 58.0833 46.7475 58.0833 42.8978C58.0833 39.0481 61.2298 35.9273 65.1111 35.9273C68.9924 35.9273 72.1389 39.0481 72.1389 42.8978ZM22.9444 42.8978C22.9444 46.7475 19.798 49.8683 15.9167 49.8683C12.0353 49.8683 8.88889 46.7475 8.88889 42.8978C8.88889 39.0481 12.0353 35.9273 15.9167 35.9273C19.798 35.9273 22.9444 39.0481 22.9444 42.8978Z" stroke="#464646" stroke-width="2" stroke-linecap="round" stroke-linejoin="round"/>
</g>
</svg>
