<svg width="80" height="77" viewBox="0 0 80 77" fill="none" xmlns="http://www.w3.org/2000/svg">
<g id="Group 436">
<path id="Vector" d="M72.956 46.908H9.21952C8.73327 46.9076 8.26019 47.0662 7.87231 47.3599C7.48444 47.6535 7.20303 48.066 7.07093 48.5346L2.0303 66.3897C1.71784 67.4966 1.6658 68.6609 1.87826 69.7914C2.09073 70.9218 2.56192 71.9875 3.25486 72.905C3.9478 73.8224 4.84364 74.5666 5.87208 75.0791C6.90052 75.5916 8.03358 75.8585 9.18235 75.8588H71.3055C72.4543 75.8585 73.5873 75.5916 74.6158 75.0791C75.6442 74.5666 76.5401 73.8224 77.233 72.905C77.9259 71.9875 78.3971 70.9218 78.6096 69.7914C78.8221 68.6609 78.77 67.4966 78.4576 66.3897L72.956 46.908ZM72.956 46.908V37.2434M7.53188 46.908V8.8603C7.53188 6.88595 8.31516 4.99247 9.70941 3.59639C11.1037 2.20032 12.9947 1.41602 14.9664 1.41602H40.2439M36.5267 64.6924H43.9612" stroke="#464646" stroke-width="2" stroke-linecap="round" stroke-linejoin="round"/>
<g id="Group 256">
<path id="Vector_2" d="M58.0592 35.138C67.3715 35.138 74.9202 27.5893 74.9202 18.277C74.9202 8.96467 67.3715 1.41602 58.0592 1.41602C48.7469 1.41602 41.1982 8.96467 41.1982 18.277C41.1982 27.5893 48.7469 35.138 58.0592 35.138Z" fill="#FFBC00" stroke="#464646" stroke-width="2" stroke-linecap="round" stroke-linejoin="round"/>
<g id="Vector_3">
<path d="M58.0596 8.16211V18.2787H68.1762" fill="#FFBC00"/>
<path d="M58.0596 8.16211V18.2787H68.1762" stroke="white" stroke-width="2" stroke-linecap="round" stroke-linejoin="round"/>
</g>
</g>
</g>
</svg>
