<svg width="76" height="74" viewBox="0 0 76 74" fill="none" xmlns="http://www.w3.org/2000/svg">
<g id="Group 432">
<g id="Group 264">
<path id="Vector" d="M19.8271 16.541L38.0721 27.488L56.3171 16.541" stroke="#464646" stroke-width="2" stroke-linecap="round" stroke-linejoin="round"/>
<path id="Vector_2" d="M30.775 60.3293H8.88101C6.94546 60.3293 5.08918 59.5604 3.72054 58.1918C2.3519 56.8231 1.58301 54.9669 1.58301 53.0313V9.24331C1.58301 7.30776 2.3519 5.45149 3.72054 4.08285C5.08918 2.71421 6.94546 1.94531 8.88101 1.94531H67.265C69.2006 1.94531 71.0568 2.71421 72.4255 4.08285C73.7941 5.45149 74.563 7.30776 74.563 9.24331V34.2645" stroke="#464646" stroke-width="2" stroke-linecap="round"/>
<path id="Vector_3" d="M73.2885 54.3438C75.7041 55.8224 75.5526 59.4165 73.0684 59.6986L60.5158 61.1139L54.8874 72.3584C53.7725 74.5957 50.325 73.4965 49.7529 70.734L43.6159 40.9885C43.1318 38.654 45.2443 37.1852 47.2834 38.4352L73.2885 54.3438Z" fill="#FFBC00"/>
</g>
</g>
</svg>
