<svg width="78" height="71" viewBox="0 0 78 71" fill="none" xmlns="http://www.w3.org/2000/svg">
<g id="Group 437">
<g id="Group 207">
<g id="Group 149">
<g id="Group 148">
<g id="Vector">
<path d="M69.2969 9.11569V8.27536C69.2969 7.38389 68.9427 6.52893 68.3124 5.89856C67.682 5.2682 66.827 4.91406 65.9356 4.91406H44.0871C43.1957 4.91406 42.3407 5.2682 41.7103 5.89856C41.08 6.52893 40.7258 7.38389 40.7258 8.27536V25.0819C40.7258 25.9733 41.08 26.8283 41.7103 27.4587C42.3407 28.089 43.1957 28.4432 44.0871 28.4432H65.9356C66.827 28.4432 67.682 28.089 68.3124 27.4587C68.9427 26.8283 69.2969 25.9733 69.2969 25.0819V24.2415" fill="#FFBC00"/>
<path d="M69.2969 9.11569V8.27536C69.2969 7.38389 68.9427 6.52893 68.3124 5.89856C67.682 5.2682 66.827 4.91406 65.9356 4.91406H44.0871C43.1957 4.91406 42.3407 5.2682 41.7103 5.89856C41.08 6.52893 40.7258 7.38389 40.7258 8.27536V25.0819C40.7258 25.9733 41.08 26.8283 41.7103 27.4587C42.3407 28.089 43.1957 28.4432 44.0871 28.4432H65.9356C66.827 28.4432 67.682 28.089 68.3124 27.4587C68.9427 26.8283 69.2969 25.9733 69.2969 25.0819V24.2415" stroke="#464646" stroke-width="2" stroke-linecap="round"/>
</g>
<path id="Vector_2" d="M62.5742 11.6367L55.0113 16.6787L47.4484 11.6367" stroke="white" stroke-width="2" stroke-linecap="round" stroke-linejoin="round"/>
<path id="Vector_3" d="M72.6582 19.2002H69.2969M76.0195 14.1582H69.2969" stroke="#464646" stroke-width="2" stroke-linecap="round" stroke-linejoin="round"/>
</g>
</g>
</g>
<path id="Vector_4" d="M66.3753 43.1107H8.67868C8.2385 43.1103 7.81025 43.2539 7.45914 43.5197C7.10802 43.7856 6.85328 44.159 6.7337 44.5832L2.17073 60.7462C1.88788 61.7483 1.84077 62.8023 2.0331 63.8256C2.22543 64.8489 2.65197 65.8136 3.27925 66.6441C3.90652 67.4746 4.71747 68.1483 5.64845 68.6122C6.57944 69.0761 7.60512 69.3177 8.64503 69.3181H64.8812C65.9211 69.3177 66.9468 69.0761 67.8778 68.6122C68.8088 68.1483 69.6197 67.4746 70.247 66.6441C70.8743 65.8136 71.3008 64.8489 71.4931 63.8256C71.6855 62.8023 71.6384 61.7483 71.3555 60.7462L66.3753 43.1107ZM66.3753 43.1107V34.362M7.15096 43.1107V8.66852C7.15096 6.88127 7.86001 5.16722 9.12214 3.90345C10.3843 2.63967 12.0961 1.92969 13.881 1.92969H36.7631M33.3981 59.2098H40.1281" stroke="#464646" stroke-width="2" stroke-linecap="round" stroke-linejoin="round"/>
</g>
</svg>
