<svg width="75" height="81" viewBox="0 0 75 81" fill="none" xmlns="http://www.w3.org/2000/svg">
<g id="Group 435">
<path id="Vector" d="M39.1629 73.433H8.91071C6.90486 73.433 4.98117 72.6362 3.56282 71.2178C2.14448 69.7995 1.34766 67.8758 1.34766 65.8699V31.8362M1.34766 31.8362H69.4151M1.34766 31.8362V16.7101C1.34766 14.7042 2.14448 12.7805 3.56282 11.3622C4.98117 9.94385 6.90486 9.14704 8.91071 9.14704H16.4738M69.4151 31.8362V43.1808M69.4151 31.8362V16.7101C69.4151 14.7042 68.6183 12.7805 67.2 11.3622C65.7816 9.94385 63.8579 9.14704 61.8521 9.14704H59.9613M46.726 9.14704V1.58398M46.726 9.14704V16.7101M46.726 9.14704H29.7091M16.4738 1.58398V16.7101" stroke="#464646" stroke-width="2" stroke-linecap="round" stroke-linejoin="round"/>
<path id="Vector_2" d="M61.7956 49.5607L71.4611 52.0149C72.467 52.272 73.1742 53.1872 73.1439 54.2233C72.4935 75.9973 59.9351 79.3402 59.9351 79.3402C59.9351 79.3402 47.3766 75.9973 46.7262 54.2233C46.7145 53.7189 46.8747 53.2255 47.1805 52.8242C47.4863 52.4229 47.9195 52.1375 48.409 52.0149L58.0745 49.5607C59.296 49.2506 60.5741 49.2506 61.7956 49.5607Z" fill="#FFBC00" stroke="#464646" stroke-width="2" stroke-linecap="round" stroke-linejoin="round"/>
</g>
</svg>
