<svg width="82" height="71" viewBox="0 0 82 71" fill="none" xmlns="http://www.w3.org/2000/svg">
<g id="Group 433">
<g id="Group 224">
<rect id="Rectangle 146" x="44" y="32.9863" width="36.3311" height="35.1591" fill="#FFBC00"/>
<path id="Vector" d="M44 66.0146V36.2892C44 35.4132 44.348 34.5731 44.9674 33.9537C45.5868 33.3343 46.4269 32.9863 47.3028 32.9863H77.0283C77.9043 32.9863 78.7443 33.3343 79.3637 33.9537C79.9831 34.5731 80.3311 35.4132 80.3311 36.2892V66.0146C80.3311 66.8906 79.9831 67.7307 79.3637 68.3501C78.7443 68.9695 77.9043 69.3174 77.0283 69.3174H47.3028C46.4269 69.3174 45.5868 68.9695 44.9674 68.3501C44.348 67.7307 44 66.8906 44 66.0146Z" fill="#FFBC00" stroke="#464646" stroke-width="2"/>
<g id="Vector_2">
<path d="M67.1206 42.8927H73.7262H67.1206ZM67.1206 56.9297H73.7262H67.1206ZM67.1206 61.8839H73.7262H67.1206ZM50.6064 42.8927H53.9093H50.6064ZM57.2121 42.8927H53.9093H57.2121ZM53.9093 42.8927V39.5898V42.8927ZM53.9093 42.8927V46.1955V42.8927ZM51.5742 61.7419L53.9093 59.4068L51.5742 61.7419ZM56.246 57.0717L53.9093 59.4068L56.246 57.0717ZM53.9093 59.4068L51.5742 57.0717L53.9093 59.4068ZM53.9093 59.4068L56.246 61.7419L53.9093 59.4068Z" fill="#FFBC00"/>
<path d="M67.1206 42.8927H73.7262M67.1206 56.9297H73.7262M67.1206 61.8839H73.7262M50.6064 42.8927H53.9093M53.9093 42.8927H57.2121M53.9093 42.8927V39.5898M53.9093 42.8927V46.1955M51.5742 61.7419L53.9093 59.4068M53.9093 59.4068L56.246 57.0717M53.9093 59.4068L51.5742 57.0717M53.9093 59.4068L56.246 61.7419" stroke="white" stroke-width="2" stroke-linecap="round" stroke-linejoin="round"/>
</g>
</g>
<path id="Vector_3" d="M1.22266 23.6844L36.9678 1.92969L72.7129 23.6844M9.16602 65.2162H34.3309M29.0244 21.7067H44.9112M13.1377 53.3499V33.5729M29.0244 53.3499V33.5729" stroke="#464646" stroke-width="2" stroke-linecap="round" stroke-linejoin="round"/>
</g>
</svg>
