<svg width="80" height="78" viewBox="0 0 80 78" fill="none" xmlns="http://www.w3.org/2000/svg">
<g id="Group 430">
<path id="Vector" d="M72.956 47.3123H9.21952C8.73327 47.3119 8.26019 47.4705 7.87231 47.7642C7.48444 48.0578 7.20303 48.4703 7.07093 48.9389L2.0303 66.794C1.71784 67.9009 1.6658 69.0652 1.87826 70.1957C2.09073 71.3261 2.56192 72.3918 3.25486 73.3093C3.9478 74.2267 4.84364 74.9709 5.87208 75.4834C6.90052 75.9959 8.03358 76.2628 9.18235 76.2631H71.3055C72.4543 76.2628 73.5873 75.9959 74.6158 75.4834C75.6442 74.9709 76.5401 74.2267 77.233 73.3093C77.9259 72.3918 78.3971 71.3261 78.6096 70.1957C78.8221 69.0652 78.77 67.9009 78.4576 66.794L72.956 47.3123ZM72.956 47.3123V37.6477M7.53188 47.3123V9.26459C7.53188 7.29025 8.31516 5.39676 9.70941 4.00069C11.1037 2.60462 12.9947 1.82031 14.9664 1.82031H40.2439M36.5267 65.0967H43.9612" stroke="#464646" stroke-width="2" stroke-linecap="round" stroke-linejoin="round"/>
<g id="Group 256">
<path id="Vector_2" d="M58.0592 35.5423C67.3715 35.5423 74.9202 27.9936 74.9202 18.6813C74.9202 9.36897 67.3715 1.82031 58.0592 1.82031C48.7469 1.82031 41.1982 9.36897 41.1982 18.6813C41.1982 27.9936 48.7469 35.5423 58.0592 35.5423Z" stroke="#464646" stroke-width="2" stroke-linecap="round" stroke-linejoin="round"/>
<path id="Vector_3" d="M58.0596 8.56641V18.683H68.1762" stroke="#464646" stroke-width="2" stroke-linecap="round" stroke-linejoin="round"/>
</g>
</g>
</svg>
