<svg width="78" height="70" viewBox="0 0 78 70" fill="none" xmlns="http://www.w3.org/2000/svg">
<g id="Group 426">
<g id="Group 207">
<g id="Group 149">
<g id="Group 148">
<path id="Vector" d="M62.5743 11.041L55.0114 16.083L47.4485 11.041M72.6582 18.6039H69.2969M76.0195 13.562H69.2969" stroke="#464646" stroke-width="2" stroke-linecap="round" stroke-linejoin="round"/>
<path id="Vector_2" d="M69.2969 8.51998V7.67966C69.2969 6.78819 68.9427 5.93323 68.3124 5.30286C67.682 4.6725 66.827 4.31836 65.9356 4.31836H44.0871C43.1957 4.31836 42.3407 4.6725 41.7103 5.30286C41.08 5.93323 40.7258 6.78819 40.7258 7.67966V24.4862C40.7258 25.3776 41.08 26.2326 41.7103 26.863C42.3407 27.4933 43.1957 27.8475 44.0871 27.8475H65.9356C66.827 27.8475 67.682 27.4933 68.3124 26.863C68.9427 26.2326 69.2969 25.3776 69.2969 24.4862V23.6458" stroke="#464646" stroke-width="2" stroke-linecap="round"/>
</g>
</g>
</g>
<path id="Vector_3" d="M66.3753 42.515H8.67868C8.2385 42.5146 7.81025 42.6582 7.45914 42.924C7.10802 43.1899 6.85328 43.5633 6.7337 43.9875L2.17073 60.1505C1.88788 61.1526 1.84077 62.2066 2.0331 63.2299C2.22543 64.2532 2.65197 65.2179 3.27925 66.0484C3.90652 66.8789 4.71747 67.5526 5.64845 68.0165C6.57944 68.4804 7.60512 68.722 8.64503 68.7224H64.8812C65.9211 68.722 66.9468 68.4804 67.8778 68.0165C68.8088 67.5526 69.6197 66.8789 70.247 66.0484C70.8743 65.2179 71.3008 64.2532 71.4931 63.2299C71.6855 62.2066 71.6384 61.1526 71.3555 60.1505L66.3753 42.515ZM66.3753 42.515V33.7663M7.15096 42.515V8.07282C7.15096 6.28557 7.86001 4.57152 9.12214 3.30774C10.3843 2.04397 12.0961 1.33398 13.881 1.33398H36.7631M33.3981 58.6141H40.1281" stroke="#464646" stroke-width="2" stroke-linecap="round" stroke-linejoin="round"/>
</g>
</svg>
