<svg width="77" height="74" viewBox="0 0 77 74" fill="none" xmlns="http://www.w3.org/2000/svg">
<g id="Group 431">
<g id="Group 264">
<path id="Vector" d="M19.8271 15.9434L38.0721 26.8904L56.3171 15.9434" stroke="#464646" stroke-width="2" stroke-linecap="round" stroke-linejoin="round"/>
<path id="Vector_2" d="M30.775 59.7317H8.88101C6.94546 59.7317 5.08918 58.9628 3.72054 57.5941C2.3519 56.2255 1.58301 54.3692 1.58301 52.4337V8.64566C1.58301 6.71011 2.3519 4.85383 3.72054 3.48519C5.08918 2.11655 6.94546 1.34766 8.88101 1.34766H67.265C69.2006 1.34766 71.0568 2.11655 72.4255 3.48519C73.7941 4.85383 74.563 6.71011 74.563 8.64566V33.6668" stroke="#464646" stroke-width="2" stroke-linecap="round"/>
<path id="Vector_3" d="M73.2885 53.7462C75.7041 55.2247 75.5526 58.8189 73.0684 59.101L60.5158 60.5163L54.8874 71.7608C53.7725 73.998 50.325 72.8989 49.7529 70.1364L43.6159 40.3909C43.1318 38.0564 45.2443 36.5876 47.2834 37.8375L73.2885 53.7462Z" stroke="#464646" stroke-width="2"/>
</g>
</g>
</svg>
